<mxfile host="app.diagrams.net" agent="Mozilla/5.0 (Macintosh; Intel Mac OS X 10_15_7) AppleWebKit/537.36 (KHTML, like Gecko) Chrome/130.0.0.0 Safari/537.36" version="24.8.4">
  <diagram name="Page-1" id="Pz5lpKkMTxTy54DyIvJL">
    <mxGraphModel dx="2135" dy="964" grid="1" gridSize="10" guides="1" tooltips="1" connect="1" arrows="1" fold="1" page="0" pageScale="1" pageWidth="827" pageHeight="1169" math="0" shadow="0">
      <root>
        <mxCell id="0" />
        <mxCell id="1" parent="0" />
        <mxCell id="DXQWr9290HLG6dfpMkfE-1" value="ssa_project" style="rounded=0;whiteSpace=wrap;html=1;" parent="1" vertex="1">
          <mxGeometry x="360" y="120" width="120" height="60" as="geometry" />
        </mxCell>
        <mxCell id="DXQWr9290HLG6dfpMkfE-2" value="users" style="rounded=0;whiteSpace=wrap;html=1;" parent="1" vertex="1">
          <mxGeometry x="160" y="240" width="120" height="60" as="geometry" />
        </mxCell>
        <mxCell id="DXQWr9290HLG6dfpMkfE-3" value="chipin" style="rounded=0;whiteSpace=wrap;html=1;" parent="1" vertex="1">
          <mxGeometry x="560" y="240" width="120" height="60" as="geometry" />
        </mxCell>
        <mxCell id="DXQWr9290HLG6dfpMkfE-4" value="registration" style="rounded=0;whiteSpace=wrap;html=1;" parent="1" vertex="1">
          <mxGeometry x="40" y="360" width="120" height="60" as="geometry" />
        </mxCell>
        <mxCell id="DXQWr9290HLG6dfpMkfE-5" value="authentication" style="rounded=0;whiteSpace=wrap;html=1;" parent="1" vertex="1">
          <mxGeometry x="280" y="360" width="120" height="60" as="geometry" />
        </mxCell>
        <mxCell id="DXQWr9290HLG6dfpMkfE-6" value="form validation" style="rounded=0;whiteSpace=wrap;html=1;" parent="1" vertex="1">
          <mxGeometry x="-40" y="480" width="120" height="60" as="geometry" />
        </mxCell>
        <mxCell id="DXQWr9290HLG6dfpMkfE-7" value="profile creation" style="rounded=0;whiteSpace=wrap;html=1;" parent="1" vertex="1">
          <mxGeometry x="-40" y="620" width="120" height="60" as="geometry" />
        </mxCell>
        <mxCell id="DXQWr9290HLG6dfpMkfE-8" value="groups" style="rounded=0;whiteSpace=wrap;html=1;" parent="1" vertex="1">
          <mxGeometry x="560" y="360.25" width="120" height="60" as="geometry" />
        </mxCell>
        <mxCell id="DXQWr9290HLG6dfpMkfE-9" value="" style="ellipse;whiteSpace=wrap;html=1;aspect=fixed;fontStyle=1" parent="1" vertex="1">
          <mxGeometry x="280" y="300" width="20" height="20" as="geometry" />
        </mxCell>
        <mxCell id="DXQWr9290HLG6dfpMkfE-10" value="" style="endArrow=classic;html=1;rounded=0;exitX=1;exitY=1;exitDx=0;exitDy=0;fontStyle=1" parent="1" source="DXQWr9290HLG6dfpMkfE-9" edge="1">
          <mxGeometry width="50" height="50" relative="1" as="geometry">
            <mxPoint x="354" y="335" as="sourcePoint" />
            <mxPoint x="340" y="340" as="targetPoint" />
          </mxGeometry>
        </mxCell>
        <mxCell id="DXQWr9290HLG6dfpMkfE-11" value="Login form &amp;amp; reCAPTURE" style="text;html=1;align=center;verticalAlign=middle;whiteSpace=wrap;rounded=0;fontStyle=0" parent="1" vertex="1">
          <mxGeometry x="300" y="295" width="100" height="30" as="geometry" />
        </mxCell>
        <mxCell id="DXQWr9290HLG6dfpMkfE-12" value="" style="ellipse;whiteSpace=wrap;html=1;aspect=fixed;strokeColor=#000000;fillColor=#000000;fontStyle=1" parent="1" vertex="1">
          <mxGeometry x="260" y="335" width="20" height="20" as="geometry" />
        </mxCell>
        <mxCell id="DXQWr9290HLG6dfpMkfE-13" value="" style="endArrow=classic;html=1;rounded=0;fontStyle=1" parent="1" source="DXQWr9290HLG6dfpMkfE-12" edge="1">
          <mxGeometry width="50" height="50" relative="1" as="geometry">
            <mxPoint x="319" y="285.74" as="sourcePoint" />
            <mxPoint x="230" y="320" as="targetPoint" />
          </mxGeometry>
        </mxCell>
        <mxCell id="DXQWr9290HLG6dfpMkfE-14" value="Valid login" style="text;html=1;align=center;verticalAlign=middle;whiteSpace=wrap;rounded=0;fontStyle=0" parent="1" vertex="1">
          <mxGeometry x="200" y="330" width="60" height="30" as="geometry" />
        </mxCell>
        <mxCell id="DXQWr9290HLG6dfpMkfE-15" value="" style="ellipse;whiteSpace=wrap;html=1;aspect=fixed;strokeColor=#000000;fillColor=#000000;" parent="1" vertex="1">
          <mxGeometry x="-10" y="455" width="20" height="20" as="geometry" />
        </mxCell>
        <mxCell id="DXQWr9290HLG6dfpMkfE-16" value="" style="endArrow=classic;html=1;rounded=0;" parent="1" source="DXQWr9290HLG6dfpMkfE-15" edge="1">
          <mxGeometry width="50" height="50" relative="1" as="geometry">
            <mxPoint x="40" y="380.74" as="sourcePoint" />
            <mxPoint x="50" y="430" as="targetPoint" />
          </mxGeometry>
        </mxCell>
        <mxCell id="DXQWr9290HLG6dfpMkfE-17" value="Valid form" style="text;html=1;align=center;verticalAlign=middle;whiteSpace=wrap;rounded=0;" parent="1" vertex="1">
          <mxGeometry x="-30" y="420" width="60" height="30" as="geometry" />
        </mxCell>
        <mxCell id="DXQWr9290HLG6dfpMkfE-18" value="" style="ellipse;whiteSpace=wrap;html=1;aspect=fixed;" parent="1" vertex="1">
          <mxGeometry x="94" y="430" width="20" height="20" as="geometry" />
        </mxCell>
        <mxCell id="DXQWr9290HLG6dfpMkfE-19" value="" style="endArrow=classic;html=1;rounded=0;" parent="1" source="DXQWr9290HLG6dfpMkfE-18" edge="1">
          <mxGeometry width="50" height="50" relative="1" as="geometry">
            <mxPoint x="104" y="410" as="sourcePoint" />
            <mxPoint x="60" y="470" as="targetPoint" />
          </mxGeometry>
        </mxCell>
        <mxCell id="DXQWr9290HLG6dfpMkfE-20" value="Registration form" style="text;html=1;align=center;verticalAlign=middle;whiteSpace=wrap;rounded=0;" parent="1" vertex="1">
          <mxGeometry x="84" y="450" width="100" height="30" as="geometry" />
        </mxCell>
        <mxCell id="DXQWr9290HLG6dfpMkfE-21" value="" style="ellipse;whiteSpace=wrap;html=1;aspect=fixed;strokeColor=#000000;fillColor=#000000;" parent="1" vertex="1">
          <mxGeometry x="74" y="335" width="20" height="20" as="geometry" />
        </mxCell>
        <mxCell id="DXQWr9290HLG6dfpMkfE-22" value="" style="endArrow=classic;html=1;rounded=0;" parent="1" source="DXQWr9290HLG6dfpMkfE-21" edge="1">
          <mxGeometry width="50" height="50" relative="1" as="geometry">
            <mxPoint x="129" y="280.74" as="sourcePoint" />
            <mxPoint x="150" y="310" as="targetPoint" />
          </mxGeometry>
        </mxCell>
        <mxCell id="DXQWr9290HLG6dfpMkfE-23" value="Valid user" style="text;html=1;align=center;verticalAlign=middle;whiteSpace=wrap;rounded=0;" parent="1" vertex="1">
          <mxGeometry x="34" y="300" width="60" height="30" as="geometry" />
        </mxCell>
        <mxCell id="DXQWr9290HLG6dfpMkfE-27" value="" style="ellipse;whiteSpace=wrap;html=1;aspect=fixed;" parent="1" vertex="1">
          <mxGeometry x="30" y="549.5" width="20" height="20" as="geometry" />
        </mxCell>
        <mxCell id="DXQWr9290HLG6dfpMkfE-28" value="" style="endArrow=classic;html=1;rounded=0;exitX=0.5;exitY=1;exitDx=0;exitDy=0;" parent="1" source="DXQWr9290HLG6dfpMkfE-27" edge="1">
          <mxGeometry width="50" height="50" relative="1" as="geometry">
            <mxPoint x="229" y="582.5" as="sourcePoint" />
            <mxPoint x="40" y="610" as="targetPoint" />
          </mxGeometry>
        </mxCell>
        <mxCell id="DXQWr9290HLG6dfpMkfE-29" value="Registration data" style="text;html=1;align=center;verticalAlign=middle;whiteSpace=wrap;rounded=0;" parent="1" vertex="1">
          <mxGeometry x="40" y="569.5" width="100" height="30" as="geometry" />
        </mxCell>
        <mxCell id="DXQWr9290HLG6dfpMkfE-30" value="" style="ellipse;whiteSpace=wrap;html=1;aspect=fixed;strokeColor=#000000;fillColor=#000000;" parent="1" vertex="1">
          <mxGeometry x="-10" y="585" width="20" height="20" as="geometry" />
        </mxCell>
        <mxCell id="DXQWr9290HLG6dfpMkfE-31" value="" style="endArrow=classic;html=1;rounded=0;" parent="1" source="DXQWr9290HLG6dfpMkfE-30" edge="1">
          <mxGeometry width="50" height="50" relative="1" as="geometry">
            <mxPoint x="219" y="528.24" as="sourcePoint" />
            <mxPoint y="550" as="targetPoint" />
          </mxGeometry>
        </mxCell>
        <mxCell id="DXQWr9290HLG6dfpMkfE-32" value="User register flag" style="text;html=1;align=center;verticalAlign=middle;whiteSpace=wrap;rounded=0;" parent="1" vertex="1">
          <mxGeometry x="-110" y="555" width="100" height="30" as="geometry" />
        </mxCell>
        <mxCell id="DXQWr9290HLG6dfpMkfE-33" value="group creation" style="rounded=0;whiteSpace=wrap;html=1;" parent="1" vertex="1">
          <mxGeometry x="160" y="639.75" width="120" height="60" as="geometry" />
        </mxCell>
        <mxCell id="DXQWr9290HLG6dfpMkfE-34" value="group deletion" style="rounded=0;whiteSpace=wrap;html=1;fillColor=default;gradientColor=none;" parent="1" vertex="1">
          <mxGeometry x="560" y="639.75" width="120" height="60" as="geometry" />
        </mxCell>
        <mxCell id="E8wpWodyNR_hsYaRsVic-2" value="" style="endArrow=none;html=1;rounded=0;entryX=0.5;entryY=1;entryDx=0;entryDy=0;exitX=0.5;exitY=0;exitDx=0;exitDy=0;" edge="1" parent="1" source="DXQWr9290HLG6dfpMkfE-2" target="DXQWr9290HLG6dfpMkfE-1">
          <mxGeometry width="50" height="50" relative="1" as="geometry">
            <mxPoint x="340" y="400" as="sourcePoint" />
            <mxPoint x="390" y="350" as="targetPoint" />
          </mxGeometry>
        </mxCell>
        <mxCell id="E8wpWodyNR_hsYaRsVic-3" value="" style="endArrow=none;html=1;rounded=0;entryX=0.5;entryY=0;entryDx=0;entryDy=0;exitX=0.5;exitY=0;exitDx=0;exitDy=0;" edge="1" parent="1" target="DXQWr9290HLG6dfpMkfE-3">
          <mxGeometry width="50" height="50" relative="1" as="geometry">
            <mxPoint x="420" y="180" as="sourcePoint" />
            <mxPoint x="620" y="120" as="targetPoint" />
          </mxGeometry>
        </mxCell>
        <mxCell id="E8wpWodyNR_hsYaRsVic-4" value="" style="endArrow=none;html=1;rounded=0;entryX=0.5;entryY=1;entryDx=0;entryDy=0;exitX=0.5;exitY=0;exitDx=0;exitDy=0;" edge="1" parent="1" source="DXQWr9290HLG6dfpMkfE-4" target="DXQWr9290HLG6dfpMkfE-2">
          <mxGeometry width="50" height="50" relative="1" as="geometry">
            <mxPoint x="210" y="420" as="sourcePoint" />
            <mxPoint x="260" y="370" as="targetPoint" />
          </mxGeometry>
        </mxCell>
        <mxCell id="E8wpWodyNR_hsYaRsVic-5" value="" style="endArrow=none;html=1;rounded=0;entryX=0.5;entryY=1;entryDx=0;entryDy=0;exitX=0.5;exitY=0;exitDx=0;exitDy=0;" edge="1" parent="1" source="DXQWr9290HLG6dfpMkfE-5" target="DXQWr9290HLG6dfpMkfE-2">
          <mxGeometry width="50" height="50" relative="1" as="geometry">
            <mxPoint x="210" y="420" as="sourcePoint" />
            <mxPoint x="260" y="370" as="targetPoint" />
          </mxGeometry>
        </mxCell>
        <mxCell id="E8wpWodyNR_hsYaRsVic-7" value="" style="endArrow=none;html=1;rounded=0;entryX=0.5;entryY=1;entryDx=0;entryDy=0;exitX=0.5;exitY=0;exitDx=0;exitDy=0;" edge="1" parent="1" source="DXQWr9290HLG6dfpMkfE-6" target="DXQWr9290HLG6dfpMkfE-4">
          <mxGeometry width="50" height="50" relative="1" as="geometry">
            <mxPoint x="39" y="500" as="sourcePoint" />
            <mxPoint x="89" y="450" as="targetPoint" />
          </mxGeometry>
        </mxCell>
        <mxCell id="E8wpWodyNR_hsYaRsVic-9" value="" style="endArrow=none;html=1;rounded=0;entryX=0.5;entryY=1;entryDx=0;entryDy=0;" edge="1" parent="1" source="DXQWr9290HLG6dfpMkfE-7" target="DXQWr9290HLG6dfpMkfE-6">
          <mxGeometry width="50" height="50" relative="1" as="geometry">
            <mxPoint x="80" y="600" as="sourcePoint" />
            <mxPoint x="130" y="550" as="targetPoint" />
          </mxGeometry>
        </mxCell>
        <mxCell id="E8wpWodyNR_hsYaRsVic-10" value="" style="endArrow=none;html=1;rounded=0;entryX=0.5;entryY=1;entryDx=0;entryDy=0;exitX=0.5;exitY=0;exitDx=0;exitDy=0;" edge="1" parent="1" source="DXQWr9290HLG6dfpMkfE-8" target="DXQWr9290HLG6dfpMkfE-3">
          <mxGeometry width="50" height="50" relative="1" as="geometry">
            <mxPoint x="580" y="420" as="sourcePoint" />
            <mxPoint x="630" y="370" as="targetPoint" />
          </mxGeometry>
        </mxCell>
        <mxCell id="E8wpWodyNR_hsYaRsVic-11" value="Valid login" style="text;html=1;align=center;verticalAlign=middle;whiteSpace=wrap;rounded=0;" vertex="1" parent="1">
          <mxGeometry x="540" y="170" width="60" height="30" as="geometry" />
        </mxCell>
        <mxCell id="E8wpWodyNR_hsYaRsVic-12" value="" style="endArrow=none;html=1;rounded=0;entryX=0.5;entryY=1;entryDx=0;entryDy=0;exitX=0.5;exitY=0;exitDx=0;exitDy=0;" edge="1" parent="1" source="DXQWr9290HLG6dfpMkfE-33" target="E8wpWodyNR_hsYaRsVic-25">
          <mxGeometry width="50" height="50" relative="1" as="geometry">
            <mxPoint x="390" y="587.75" as="sourcePoint" />
            <mxPoint x="500" y="537.75" as="targetPoint" />
          </mxGeometry>
        </mxCell>
        <mxCell id="E8wpWodyNR_hsYaRsVic-13" value="" style="endArrow=none;html=1;rounded=0;entryX=0.5;entryY=1;entryDx=0;entryDy=0;exitX=0.5;exitY=0;exitDx=0;exitDy=0;" edge="1" parent="1" source="DXQWr9290HLG6dfpMkfE-34" target="E8wpWodyNR_hsYaRsVic-25">
          <mxGeometry width="50" height="50" relative="1" as="geometry">
            <mxPoint x="450" y="547.5" as="sourcePoint" />
            <mxPoint x="420" y="537.5" as="targetPoint" />
          </mxGeometry>
        </mxCell>
        <mxCell id="E8wpWodyNR_hsYaRsVic-17" value="" style="ellipse;whiteSpace=wrap;html=1;aspect=fixed;" vertex="1" parent="1">
          <mxGeometry x="500" y="175" width="20" height="20" as="geometry" />
        </mxCell>
        <mxCell id="E8wpWodyNR_hsYaRsVic-18" value="" style="endArrow=classic;html=1;rounded=0;" edge="1" parent="1" source="E8wpWodyNR_hsYaRsVic-17">
          <mxGeometry width="50" height="50" relative="1" as="geometry">
            <mxPoint x="510" y="160" as="sourcePoint" />
            <mxPoint x="580" y="210" as="targetPoint" />
          </mxGeometry>
        </mxCell>
        <mxCell id="E8wpWodyNR_hsYaRsVic-19" value="" style="ellipse;whiteSpace=wrap;html=1;aspect=fixed;fillColor=#000000;" vertex="1" parent="1">
          <mxGeometry x="200" y="609.75" width="20" height="20" as="geometry" />
        </mxCell>
        <mxCell id="E8wpWodyNR_hsYaRsVic-20" value="" style="endArrow=classic;html=1;rounded=0;" edge="1" parent="1" source="E8wpWodyNR_hsYaRsVic-19">
          <mxGeometry width="50" height="50" relative="1" as="geometry">
            <mxPoint x="550" y="432.75" as="sourcePoint" />
            <mxPoint x="290" y="580" as="targetPoint" />
          </mxGeometry>
        </mxCell>
        <mxCell id="E8wpWodyNR_hsYaRsVic-21" value="Create group flag" style="text;html=1;align=center;verticalAlign=middle;whiteSpace=wrap;rounded=0;" vertex="1" parent="1">
          <mxGeometry x="197" y="556" width="100" height="30" as="geometry" />
        </mxCell>
        <mxCell id="E8wpWodyNR_hsYaRsVic-22" value="" style="ellipse;whiteSpace=wrap;html=1;aspect=fixed;strokeColor=#000000;fillColor=#000000;" vertex="1" parent="1">
          <mxGeometry x="556" y="617" width="20" height="20" as="geometry" />
        </mxCell>
        <mxCell id="E8wpWodyNR_hsYaRsVic-23" value="" style="endArrow=classic;html=1;rounded=0;" edge="1" parent="1" source="E8wpWodyNR_hsYaRsVic-22">
          <mxGeometry width="50" height="50" relative="1" as="geometry">
            <mxPoint x="633" y="442.25" as="sourcePoint" />
            <mxPoint x="508" y="591" as="targetPoint" />
          </mxGeometry>
        </mxCell>
        <mxCell id="E8wpWodyNR_hsYaRsVic-24" value="Delete group flag" style="text;html=1;align=center;verticalAlign=middle;whiteSpace=wrap;rounded=0;fontSize=10;" vertex="1" parent="1">
          <mxGeometry x="528" y="593" width="100" height="30" as="geometry" />
        </mxCell>
        <mxCell id="E8wpWodyNR_hsYaRsVic-25" value="Admin Functions" style="rounded=0;whiteSpace=wrap;html=1;" vertex="1" parent="1">
          <mxGeometry x="360" y="480" width="120" height="60" as="geometry" />
        </mxCell>
        <mxCell id="E8wpWodyNR_hsYaRsVic-26" value="User Functions" style="rounded=0;whiteSpace=wrap;html=1;" vertex="1" parent="1">
          <mxGeometry x="880" y="549.5" width="120" height="60" as="geometry" />
        </mxCell>
        <mxCell id="E8wpWodyNR_hsYaRsVic-27" value="" style="endArrow=none;html=1;rounded=0;entryX=0.5;entryY=1;entryDx=0;entryDy=0;exitX=0.5;exitY=0;exitDx=0;exitDy=0;" edge="1" parent="1" source="E8wpWodyNR_hsYaRsVic-25" target="DXQWr9290HLG6dfpMkfE-8">
          <mxGeometry width="50" height="50" relative="1" as="geometry">
            <mxPoint x="430" y="580" as="sourcePoint" />
            <mxPoint x="480" y="530" as="targetPoint" />
          </mxGeometry>
        </mxCell>
        <mxCell id="E8wpWodyNR_hsYaRsVic-28" value="" style="endArrow=none;html=1;rounded=0;entryX=0.5;entryY=1;entryDx=0;entryDy=0;exitX=0.5;exitY=0;exitDx=0;exitDy=0;" edge="1" parent="1" source="E8wpWodyNR_hsYaRsVic-26" target="DXQWr9290HLG6dfpMkfE-8">
          <mxGeometry width="50" height="50" relative="1" as="geometry">
            <mxPoint x="510" y="490.25" as="sourcePoint" />
            <mxPoint x="630" y="430.25" as="targetPoint" />
          </mxGeometry>
        </mxCell>
        <mxCell id="E8wpWodyNR_hsYaRsVic-29" value="invite users" style="rounded=0;whiteSpace=wrap;html=1;" vertex="1" parent="1">
          <mxGeometry x="360" y="639.75" width="120" height="60" as="geometry" />
        </mxCell>
        <mxCell id="E8wpWodyNR_hsYaRsVic-30" value="request to join" style="rounded=0;whiteSpace=wrap;html=1;" vertex="1" parent="1">
          <mxGeometry x="560" y="760" width="120" height="60" as="geometry" />
        </mxCell>
        <mxCell id="E8wpWodyNR_hsYaRsVic-31" value="delete join request" style="rounded=0;whiteSpace=wrap;html=1;" vertex="1" parent="1">
          <mxGeometry x="720" y="760" width="120" height="60" as="geometry" />
        </mxCell>
        <mxCell id="E8wpWodyNR_hsYaRsVic-32" value="vote on join" style="rounded=0;whiteSpace=wrap;html=1;" vertex="1" parent="1">
          <mxGeometry x="1040" y="760" width="120" height="60" as="geometry" />
        </mxCell>
        <mxCell id="E8wpWodyNR_hsYaRsVic-33" value="leave group" style="rounded=0;whiteSpace=wrap;html=1;" vertex="1" parent="1">
          <mxGeometry x="1200" y="760" width="120" height="60" as="geometry" />
        </mxCell>
        <mxCell id="E8wpWodyNR_hsYaRsVic-34" value="accept invite" style="rounded=0;whiteSpace=wrap;html=1;" vertex="1" parent="1">
          <mxGeometry x="880" y="760" width="120" height="60" as="geometry" />
        </mxCell>
        <mxCell id="E8wpWodyNR_hsYaRsVic-35" value="" style="endArrow=none;html=1;rounded=0;entryX=0.5;entryY=1;entryDx=0;entryDy=0;exitX=0.5;exitY=0;exitDx=0;exitDy=0;" edge="1" parent="1" source="E8wpWodyNR_hsYaRsVic-29" target="E8wpWodyNR_hsYaRsVic-25">
          <mxGeometry width="50" height="50" relative="1" as="geometry">
            <mxPoint x="550" y="610.25" as="sourcePoint" />
            <mxPoint x="600" y="560.25" as="targetPoint" />
          </mxGeometry>
        </mxCell>
        <mxCell id="E8wpWodyNR_hsYaRsVic-36" value="" style="endArrow=none;html=1;rounded=0;entryX=0.5;entryY=1;entryDx=0;entryDy=0;exitX=0.5;exitY=0;exitDx=0;exitDy=0;" edge="1" parent="1" source="E8wpWodyNR_hsYaRsVic-30" target="E8wpWodyNR_hsYaRsVic-26">
          <mxGeometry width="50" height="50" relative="1" as="geometry">
            <mxPoint x="700" y="560" as="sourcePoint" />
            <mxPoint x="750" y="510" as="targetPoint" />
          </mxGeometry>
        </mxCell>
        <mxCell id="E8wpWodyNR_hsYaRsVic-37" value="" style="endArrow=none;html=1;rounded=0;entryX=0.5;entryY=1;entryDx=0;entryDy=0;exitX=0.5;exitY=0;exitDx=0;exitDy=0;" edge="1" parent="1" source="E8wpWodyNR_hsYaRsVic-31" target="E8wpWodyNR_hsYaRsVic-26">
          <mxGeometry width="50" height="50" relative="1" as="geometry">
            <mxPoint x="700" y="560" as="sourcePoint" />
            <mxPoint x="750" y="510" as="targetPoint" />
          </mxGeometry>
        </mxCell>
        <mxCell id="E8wpWodyNR_hsYaRsVic-38" value="" style="endArrow=none;html=1;rounded=0;entryX=0.5;entryY=1;entryDx=0;entryDy=0;" edge="1" parent="1" source="E8wpWodyNR_hsYaRsVic-34" target="E8wpWodyNR_hsYaRsVic-26">
          <mxGeometry width="50" height="50" relative="1" as="geometry">
            <mxPoint x="700" y="560" as="sourcePoint" />
            <mxPoint x="750" y="510" as="targetPoint" />
          </mxGeometry>
        </mxCell>
        <mxCell id="E8wpWodyNR_hsYaRsVic-39" value="" style="endArrow=none;html=1;rounded=0;exitX=0.5;exitY=0;exitDx=0;exitDy=0;entryX=0.5;entryY=1;entryDx=0;entryDy=0;" edge="1" parent="1" source="E8wpWodyNR_hsYaRsVic-32" target="E8wpWodyNR_hsYaRsVic-26">
          <mxGeometry width="50" height="50" relative="1" as="geometry">
            <mxPoint x="700" y="560" as="sourcePoint" />
            <mxPoint x="940" y="621" as="targetPoint" />
          </mxGeometry>
        </mxCell>
        <mxCell id="E8wpWodyNR_hsYaRsVic-40" value="" style="endArrow=none;html=1;rounded=0;exitX=0.5;exitY=0;exitDx=0;exitDy=0;entryX=0.5;entryY=1;entryDx=0;entryDy=0;" edge="1" parent="1" source="E8wpWodyNR_hsYaRsVic-33" target="E8wpWodyNR_hsYaRsVic-26">
          <mxGeometry width="50" height="50" relative="1" as="geometry">
            <mxPoint x="700" y="560" as="sourcePoint" />
            <mxPoint x="940" y="620" as="targetPoint" />
          </mxGeometry>
        </mxCell>
        <mxCell id="E8wpWodyNR_hsYaRsVic-41" value="" style="ellipse;whiteSpace=wrap;html=1;aspect=fixed;" vertex="1" parent="1">
          <mxGeometry x="850" y="614.75" width="20" height="20" as="geometry" />
        </mxCell>
        <mxCell id="E8wpWodyNR_hsYaRsVic-42" value="" style="endArrow=classic;html=1;rounded=0;" edge="1" parent="1" source="E8wpWodyNR_hsYaRsVic-41">
          <mxGeometry width="50" height="50" relative="1" as="geometry">
            <mxPoint x="844" y="600" as="sourcePoint" />
            <mxPoint x="810" y="650" as="targetPoint" />
          </mxGeometry>
        </mxCell>
        <mxCell id="E8wpWodyNR_hsYaRsVic-43" value="UserID" style="text;html=1;align=center;verticalAlign=middle;whiteSpace=wrap;rounded=0;" vertex="1" parent="1">
          <mxGeometry x="760" y="609.75" width="100" height="30" as="geometry" />
        </mxCell>
        <mxCell id="E8wpWodyNR_hsYaRsVic-44" value="" style="ellipse;whiteSpace=wrap;html=1;aspect=fixed;fillColor=#000000;" vertex="1" parent="1">
          <mxGeometry x="690" y="730" width="20" height="20" as="geometry" />
        </mxCell>
        <mxCell id="E8wpWodyNR_hsYaRsVic-45" value="" style="endArrow=classic;html=1;rounded=0;" edge="1" parent="1" source="E8wpWodyNR_hsYaRsVic-44">
          <mxGeometry width="50" height="50" relative="1" as="geometry">
            <mxPoint x="880" y="600" as="sourcePoint" />
            <mxPoint x="750" y="717.5" as="targetPoint" />
          </mxGeometry>
        </mxCell>
        <mxCell id="E8wpWodyNR_hsYaRsVic-46" value="Request to join flag" style="text;html=1;align=center;verticalAlign=middle;whiteSpace=wrap;rounded=0;fontSize=10;" vertex="1" parent="1">
          <mxGeometry x="682" y="713" width="130" height="30" as="geometry" />
        </mxCell>
        <mxCell id="E8wpWodyNR_hsYaRsVic-47" value="" style="ellipse;whiteSpace=wrap;html=1;aspect=fixed;fillColor=#000000;" vertex="1" parent="1">
          <mxGeometry x="810" y="733" width="20" height="20" as="geometry" />
        </mxCell>
        <mxCell id="E8wpWodyNR_hsYaRsVic-48" value="" style="endArrow=classic;html=1;rounded=0;" edge="1" parent="1" source="E8wpWodyNR_hsYaRsVic-47">
          <mxGeometry width="50" height="50" relative="1" as="geometry">
            <mxPoint x="1010" y="603" as="sourcePoint" />
            <mxPoint x="860" y="710" as="targetPoint" />
          </mxGeometry>
        </mxCell>
        <mxCell id="E8wpWodyNR_hsYaRsVic-49" value="Delete join flag" style="text;html=1;align=center;verticalAlign=middle;whiteSpace=wrap;rounded=0;fontSize=10;" vertex="1" parent="1">
          <mxGeometry x="807" y="711" width="100" height="30" as="geometry" />
        </mxCell>
        <mxCell id="E8wpWodyNR_hsYaRsVic-50" value="" style="ellipse;whiteSpace=wrap;html=1;aspect=fixed;fillColor=#000000;" vertex="1" parent="1">
          <mxGeometry x="1103" y="734" width="20" height="20" as="geometry" />
        </mxCell>
        <mxCell id="E8wpWodyNR_hsYaRsVic-51" value="" style="endArrow=classic;html=1;rounded=0;" edge="1" parent="1" source="E8wpWodyNR_hsYaRsVic-50">
          <mxGeometry width="50" height="50" relative="1" as="geometry">
            <mxPoint x="1300" y="604" as="sourcePoint" />
            <mxPoint x="1063" y="701" as="targetPoint" />
          </mxGeometry>
        </mxCell>
        <mxCell id="E8wpWodyNR_hsYaRsVic-52" value="Vote flag" style="text;html=1;align=center;verticalAlign=middle;whiteSpace=wrap;rounded=0;fontSize=10;" vertex="1" parent="1">
          <mxGeometry x="1047" y="711" width="100" height="30" as="geometry" />
        </mxCell>
        <mxCell id="E8wpWodyNR_hsYaRsVic-53" value="" style="ellipse;whiteSpace=wrap;html=1;aspect=fixed;" vertex="1" parent="1">
          <mxGeometry x="387" y="560" width="20" height="20" as="geometry" />
        </mxCell>
        <mxCell id="E8wpWodyNR_hsYaRsVic-54" value="" style="endArrow=classic;html=1;rounded=0;" edge="1" parent="1" source="E8wpWodyNR_hsYaRsVic-53">
          <mxGeometry width="50" height="50" relative="1" as="geometry">
            <mxPoint x="381" y="545.25" as="sourcePoint" />
            <mxPoint x="347" y="595.25" as="targetPoint" />
          </mxGeometry>
        </mxCell>
        <mxCell id="E8wpWodyNR_hsYaRsVic-55" value="Admin UserID" style="text;html=1;align=center;verticalAlign=middle;whiteSpace=wrap;rounded=0;" vertex="1" parent="1">
          <mxGeometry x="310" y="590" width="80" height="30" as="geometry" />
        </mxCell>
        <mxCell id="E8wpWodyNR_hsYaRsVic-57" value="" style="ellipse;whiteSpace=wrap;html=1;aspect=fixed;fillColor=#000000;" vertex="1" parent="1">
          <mxGeometry x="423" y="614.75" width="20" height="20" as="geometry" />
        </mxCell>
        <mxCell id="E8wpWodyNR_hsYaRsVic-58" value="" style="endArrow=classic;html=1;rounded=0;" edge="1" parent="1" source="E8wpWodyNR_hsYaRsVic-57">
          <mxGeometry width="50" height="50" relative="1" as="geometry">
            <mxPoint x="773" y="437.75" as="sourcePoint" />
            <mxPoint x="433" y="576" as="targetPoint" />
          </mxGeometry>
        </mxCell>
        <mxCell id="E8wpWodyNR_hsYaRsVic-59" value="Invite user flag" style="text;html=1;align=center;verticalAlign=middle;whiteSpace=wrap;rounded=0;" vertex="1" parent="1">
          <mxGeometry x="410" y="591" width="100" height="30" as="geometry" />
        </mxCell>
        <mxCell id="E8wpWodyNR_hsYaRsVic-60" value="" style="ellipse;whiteSpace=wrap;html=1;aspect=fixed;" vertex="1" parent="1">
          <mxGeometry x="480" y="543.75" width="20" height="20" as="geometry" />
        </mxCell>
        <mxCell id="E8wpWodyNR_hsYaRsVic-61" value="" style="endArrow=classic;html=1;rounded=0;" edge="1" parent="1" source="E8wpWodyNR_hsYaRsVic-60">
          <mxGeometry width="50" height="50" relative="1" as="geometry">
            <mxPoint x="474" y="529" as="sourcePoint" />
            <mxPoint x="540" y="580" as="targetPoint" />
          </mxGeometry>
        </mxCell>
        <mxCell id="E8wpWodyNR_hsYaRsVic-62" value="Admin UserID" style="text;html=1;align=center;verticalAlign=middle;whiteSpace=wrap;rounded=0;" vertex="1" parent="1">
          <mxGeometry x="504" y="538" width="80" height="30" as="geometry" />
        </mxCell>
        <mxCell id="E8wpWodyNR_hsYaRsVic-63" value="" style="ellipse;whiteSpace=wrap;html=1;aspect=fixed;" vertex="1" parent="1">
          <mxGeometry x="948" y="639" width="20" height="20" as="geometry" />
        </mxCell>
        <mxCell id="E8wpWodyNR_hsYaRsVic-64" value="" style="endArrow=classic;html=1;rounded=0;" edge="1" parent="1" source="E8wpWodyNR_hsYaRsVic-63">
          <mxGeometry width="50" height="50" relative="1" as="geometry">
            <mxPoint x="1034" y="663" as="sourcePoint" />
            <mxPoint x="1022" y="713" as="targetPoint" />
          </mxGeometry>
        </mxCell>
        <mxCell id="E8wpWodyNR_hsYaRsVic-65" value="GroupID" style="text;html=1;align=center;verticalAlign=middle;whiteSpace=wrap;rounded=0;" vertex="1" parent="1">
          <mxGeometry x="948" y="669.75" width="100" height="30" as="geometry" />
        </mxCell>
        <mxCell id="E8wpWodyNR_hsYaRsVic-66" value="" style="ellipse;whiteSpace=wrap;html=1;aspect=fixed;fillColor=#000000;" vertex="1" parent="1">
          <mxGeometry x="1256" y="733" width="20" height="20" as="geometry" />
        </mxCell>
        <mxCell id="E8wpWodyNR_hsYaRsVic-67" value="" style="endArrow=classic;html=1;rounded=0;entryX=0;entryY=0;entryDx=0;entryDy=0;" edge="1" parent="1" source="E8wpWodyNR_hsYaRsVic-66">
          <mxGeometry width="50" height="50" relative="1" as="geometry">
            <mxPoint x="1453" y="603" as="sourcePoint" />
            <mxPoint x="1180" y="700" as="targetPoint" />
          </mxGeometry>
        </mxCell>
        <mxCell id="E8wpWodyNR_hsYaRsVic-69" value="Leave group flag" style="text;html=1;align=center;verticalAlign=middle;whiteSpace=wrap;rounded=0;fontSize=12;movable=1;resizable=1;rotatable=1;deletable=1;editable=1;locked=0;connectable=1;" vertex="1" parent="1">
          <mxGeometry x="1220" y="699.75" width="100" height="30" as="geometry" />
        </mxCell>
        <mxCell id="E8wpWodyNR_hsYaRsVic-70" value="" style="ellipse;whiteSpace=wrap;html=1;aspect=fixed;" vertex="1" parent="1">
          <mxGeometry x="1000" y="619" width="20" height="20" as="geometry" />
        </mxCell>
        <mxCell id="E8wpWodyNR_hsYaRsVic-71" value="" style="endArrow=classic;html=1;rounded=0;" edge="1" parent="1" source="E8wpWodyNR_hsYaRsVic-70">
          <mxGeometry width="50" height="50" relative="1" as="geometry">
            <mxPoint x="1126" y="630" as="sourcePoint" />
            <mxPoint x="1114" y="680" as="targetPoint" />
          </mxGeometry>
        </mxCell>
        <mxCell id="E8wpWodyNR_hsYaRsVic-72" value="GroupID" style="text;html=1;align=center;verticalAlign=middle;whiteSpace=wrap;rounded=0;" vertex="1" parent="1">
          <mxGeometry x="1030" y="619" width="100" height="30" as="geometry" />
        </mxCell>
        <mxCell id="E8wpWodyNR_hsYaRsVic-73" value="" style="ellipse;whiteSpace=wrap;html=1;aspect=fixed;" vertex="1" parent="1">
          <mxGeometry x="910" y="639" width="20" height="20" as="geometry" />
        </mxCell>
        <mxCell id="E8wpWodyNR_hsYaRsVic-74" value="" style="endArrow=classic;html=1;rounded=0;" edge="1" parent="1" source="E8wpWodyNR_hsYaRsVic-73">
          <mxGeometry width="50" height="50" relative="1" as="geometry">
            <mxPoint x="904" y="625" as="sourcePoint" />
            <mxPoint x="880" y="690" as="targetPoint" />
          </mxGeometry>
        </mxCell>
        <mxCell id="E8wpWodyNR_hsYaRsVic-75" value="UserID" style="text;html=1;align=center;verticalAlign=middle;whiteSpace=wrap;rounded=0;" vertex="1" parent="1">
          <mxGeometry x="860" y="654.75" width="100" height="30" as="geometry" />
        </mxCell>
      </root>
    </mxGraphModel>
  </diagram>
</mxfile>
